<?xml version="1.0" encoding="UTF-8"?>
<svg width="281px" height="41px" viewBox="0 0 281 41" version="1.1" xmlns="http://www.w3.org/2000/svg" xmlns:xlink="http://www.w3.org/1999/xlink">
    <!-- Generator: Sketch 59 (86127) - https://sketch.com -->
    <title>SAberion New Logo Copy@2x</title>
    <desc>Created with Sketch.</desc>
    <g id="Page-1" stroke="none" stroke-width="1" fill="none" fill-rule="evenodd">
        <g id="Get-an-estimate_1" transform="translate(-69.000000, -30.000000)" fill-rule="nonzero">
            <g id="SAberion-New-Logo-Copy" transform="translate(69.000000, 30.000000)">
                <path d="M16.7817699,40.6749928 C25.2789707,40.6749928 31.2438931,36.2871503 31.2438931,28.4677901 L31.2438931,28.3552813 C31.2438931,21.4922456 26.7420649,18.6232717 18.7513198,16.5418593 L17.9585982,16.336744 C11.8739992,14.7444388 10.2870305,13.8690001 10.2546289,11.4435659 L10.254119,11.2539465 C10.254119,9.34129726 11.9985774,7.82242871 15.3186757,7.82242871 C18.6387741,7.82242871 22.0714181,9.28504287 25.560335,11.7039817 L30.0621632,5.17847236 C26.0667906,1.97197209 21.1710524,0.171831593 15.4312215,0.171831593 C7.3842035,0.171831593 1.64437252,4.8972004 1.64437252,12.041508 L1.64437252,12.1540168 C1.64437252,19.8951835 6.66329761,22.1228573 14.4624866,24.1316455 L14.6996744,24.1924564 C21.2177589,25.8632118 22.6066123,26.9826179 22.6337376,29.1335985 L22.6341466,29.3116059 C22.6341466,31.6180359 20.4957782,33.0243957 16.9505885,33.0243957 C12.4487603,33.0243957 8.73475197,31.1680008 5.18956224,28.2427725 L0.0687326372,34.3745011 C4.79565227,38.5935804 10.8168475,40.6749928 16.7817699,40.6749928 Z" id="Path" fill="#5D6976"></path>
                <path d="M89.0656986,0.245473704 C93.5873655,0.245473704 97.1481782,1.5184302 99.4090116,3.83289656 C101.217678,5.68446964 102.122012,7.94107434 102.122012,10.718434 L102.122012,10.718434 L102.121257,10.9748861 C102.073018,15.457623 99.7190022,17.9678437 96.9220948,19.5712678 C101.500283,21.3649792 104.326324,24.0844772 104.326324,29.5234731 L104.326324,29.5234731 L104.326324,29.6391964 C104.326324,37.0454888 98.4481574,40.7486349 89.5178653,40.7486349 L89.5178653,40.7486349 L70.6964269,40.7486349 L70.6964269,0.245473704 Z M89.3137579,24.056423 L79.2880065,24.056423 L79.2880065,32.8934764 L89.5953801,32.8934764 C93.4254424,32.8934764 95.7347447,31.5162733 95.7347447,28.5323332 L95.7347447,28.5323332 L95.7341528,28.3369661 C95.6950698,25.6874275 93.7188928,24.056423 89.3137579,24.056423 L89.3137579,24.056423 Z M87.8417463,8.34610595 L79.2880065,8.34610595 L79.2880065,16.6922119 L87.2790003,16.6922119 C91.1056734,16.6922119 93.5254814,15.4515745 93.5254814,12.5191589 L93.5254814,12.5191589 L93.5248223,12.3256769 C93.4830983,9.78192685 91.461493,8.34610595 87.8417463,8.34610595 L87.8417463,8.34610595 Z" id="Combined-Shape" fill="#5D6976"></path>
                <g id="logo-copy" transform="translate(33.000000, 0.000000)">
                    <polygon id="Path" fill="#F05559" points="16.2790698 31.5695807 32.5581395 40 16.2790698 0 22.5622195 28.3155651"></polygon>
                    <polygon id="Path" fill="#B4201B" points="9.99592002 28.3155651 16.2790698 0 0 40 16.2790698 31.5695807"></polygon>
                    <polygon id="Path" fill="#ED1C24" points="22.5622195 28.3155651 16.2790698 0 9.99592002 28.3155651 16.2790698 31.627907"></polygon>
                </g>
                <polygon id="Path" fill="#5D6976" points="109.142366 40.7486349 139.335632 40.7486349 139.335632 32.8215877 117.809476 32.8215877 117.809476 24.3159238 136.503243 24.3159238 136.503243 16.3888765 117.809476 16.3888765 117.809476 8.17252097 139.052393 8.17252097 139.052393 0.245473704 109.142366 0.245473704"></polygon>
                <path d="M162.631401,0.245473704 C167.650831,0.245473704 171.542299,1.69201518 174.136611,4.35365149 C176.336137,6.61025618 177.520497,9.79264742 177.520497,13.6115169 L177.520497,13.6115169 L177.520497,13.7272402 C177.520497,20.2656077 174.080213,24.3737855 169.060783,26.2832202 L169.060783,26.2832202 L178.704857,40.7486349 L168.5532,40.7486349 L160.093487,27.7876233 L153.269318,27.7876233 L153.269318,40.7486349 L144.584012,40.7486349 L144.584012,0.245473704 Z M162.056543,8.34610595 L153.421065,8.34610595 L153.421065,20.1288438 L162.225867,20.1288438 C166.458944,20.1288438 168.885909,17.7840203 168.885909,14.3254057 L168.885909,14.3254057 L168.885909,14.2081646 C168.885909,10.3392059 166.289621,8.34610595 162.056543,8.34610595 L162.056543,8.34610595 Z" id="Combined-Shape" fill="#5D6976"></path>
                <polygon id="Path" fill="#5D6976" points="183.568256 40.7486349 192.159835 40.7486349 192.159835 0.245473704 183.568256 0.245473704"></polygon>
                <path d="M219.387174,0.245473704 C231.573756,0.245473704 240.318757,9.25239215 240.318757,20.3851671 L240.318757,20.3851671 L240.318757,20.4970543 C240.318757,31.6298293 231.460917,40.7486349 219.274336,40.7486349 C207.087754,40.7486349 198.342753,31.7417165 198.342753,20.6089415 L198.342753,20.6089415 L198.342753,20.4970543 C198.342753,9.36427934 207.200593,0.245473704 219.387174,0.245473704 Z M219.274336,8.18946389 C212.278335,8.18946389 207.42627,13.671936 207.42627,20.3851671 L207.42627,20.3851671 L207.42627,20.4970543 C207.42627,27.2102855 212.391174,32.8046447 219.387174,32.8046447 C226.383175,32.8046447 231.23524,27.3221726 231.23524,20.6089415 L231.23524,20.6089415 L231.23524,20.4970543 C231.23524,13.7838232 226.270336,8.18946389 219.274336,8.18946389 Z" id="Combined-Shape" fill="#5D6976"></path>
                <polygon id="Path" fill="#5D6976" points="245.516717 40.7486349 245.516717 0.245473704 253.530525 0.245473704 272.041295 25.1838487 272.041295 0.245473704 280.619456 0.245473704 280.619456 40.7486349 273.226436 40.7486349 254.094878 15.0001967 254.094878 40.7486349"></polygon>
            </g>
        </g>
    </g>
</svg>